# xmcd
#
# Track frame offsets:
#  150
#  28141
#  41066
#  68452
#  87635
#  105839
#  125608
#  146033
#  167661
#  189865
#  205554
#
# Disc length: 3413 seconds
#
# Revision: 0
# Processed by: cddbd v1.5.2PL0 Copyright (c) Steve Scherf et al.
# Submitted via: AltoMP3_Maker 3.0
#
DISCID=8f0d530b
DTITLE=Status Quo - In Search of The Fourth Chord - Live at Westonbirt (Disk One)
DYEAR=1900
DGENRE=
TTITLE0=Caroline
TTITLE1=The wanderer
TTITLE2=Rain
TTITLE3=Beginning of the end
TTITLE4=I ain't wasting my time
TTITLE5=Don't drive my car
TTITLE6=Hold you back
TTITLE7=The oriental
TTITLE8=Creepin' up on you
TTITLE9=Paper plane
TTITLE10=What you're proposin'
EXTD=
EXTT0=
EXTT1=
EXTT2=
EXTT3=
EXTT4=
EXTT5=
EXTT6=
EXTT7=
EXTT8=
EXTT9=
EXTT10=
PLAYORDER=
